<mxfile host="app.diagrams.net" agent="Mozilla/5.0 (Windows NT 10.0; Win64; x64) AppleWebKit/537.36 (KHTML, like Gecko) Chrome/132.0.0.0 Safari/537.36" version="26.0.11">
  <diagram name="Page-1" id="2v7GZFGQ-rfLLPSjzAxA">
    <mxGraphModel dx="872" dy="468" grid="1" gridSize="10" guides="1" tooltips="1" connect="1" arrows="1" fold="1" page="1" pageScale="1" pageWidth="827" pageHeight="1169" math="0" shadow="0">
      <root>
        <mxCell id="0" />
        <mxCell id="1" parent="0" />
        <mxCell id="ELK8MO3kN_yScAwysa0i-20" value="" style="rhombus;whiteSpace=wrap;html=1;" vertex="1" parent="1">
          <mxGeometry x="320" y="360" width="160" height="80" as="geometry" />
        </mxCell>
        <mxCell id="ELK8MO3kN_yScAwysa0i-15" value="" style="rounded=0;whiteSpace=wrap;html=1;" vertex="1" parent="1">
          <mxGeometry x="340" y="240" width="120" height="60" as="geometry" />
        </mxCell>
        <mxCell id="ELK8MO3kN_yScAwysa0i-3" value="" style="endArrow=classic;html=1;rounded=0;exitX=0.5;exitY=1;exitDx=0;exitDy=0;" edge="1" parent="1" source="ELK8MO3kN_yScAwysa0i-1">
          <mxGeometry width="50" height="50" relative="1" as="geometry">
            <mxPoint x="410" y="80" as="sourcePoint" />
            <mxPoint x="400" y="120" as="targetPoint" />
          </mxGeometry>
        </mxCell>
        <mxCell id="ELK8MO3kN_yScAwysa0i-6" value="" style="rounded=0;whiteSpace=wrap;html=1;" vertex="1" parent="1">
          <mxGeometry x="340" y="120" width="120" height="60" as="geometry" />
        </mxCell>
        <mxCell id="ELK8MO3kN_yScAwysa0i-8" value="&lt;b&gt;PRAYER&lt;br&gt;TIME&lt;/b&gt;" style="text;html=1;align=center;verticalAlign=top;whiteSpace=wrap;rounded=0;" vertex="1" parent="1">
          <mxGeometry x="370" y="135" width="60" height="30" as="geometry" />
        </mxCell>
        <mxCell id="ELK8MO3kN_yScAwysa0i-11" value="" style="endArrow=classic;html=1;rounded=0;entryX=0.5;entryY=0;entryDx=0;entryDy=0;" edge="1" parent="1">
          <mxGeometry width="50" height="50" relative="1" as="geometry">
            <mxPoint x="400" y="180" as="sourcePoint" />
            <mxPoint x="400" y="240" as="targetPoint" />
          </mxGeometry>
        </mxCell>
        <mxCell id="ELK8MO3kN_yScAwysa0i-14" value="&lt;b&gt;DRESS UP&amp;nbsp;&lt;/b&gt;" style="text;html=1;align=center;verticalAlign=middle;whiteSpace=wrap;rounded=0;" vertex="1" parent="1">
          <mxGeometry x="370" y="257.5" width="60" height="25" as="geometry" />
        </mxCell>
        <mxCell id="ELK8MO3kN_yScAwysa0i-1" value="" style="ellipse;whiteSpace=wrap;html=1;" vertex="1" parent="1">
          <mxGeometry x="340" width="120" height="80" as="geometry" />
        </mxCell>
        <mxCell id="ELK8MO3kN_yScAwysa0i-2" value="&lt;b&gt;START DAY&lt;/b&gt;" style="text;html=1;align=center;verticalAlign=middle;whiteSpace=wrap;rounded=0;fillColor=none;strokeColor=none;" vertex="1" parent="1">
          <mxGeometry x="370" y="25" width="60" height="30" as="geometry" />
        </mxCell>
        <mxCell id="ELK8MO3kN_yScAwysa0i-16" value="" style="endArrow=classic;html=1;rounded=0;" edge="1" parent="1">
          <mxGeometry width="50" height="50" relative="1" as="geometry">
            <mxPoint x="400" y="300" as="sourcePoint" />
            <mxPoint x="400" y="360" as="targetPoint" />
          </mxGeometry>
        </mxCell>
        <mxCell id="ELK8MO3kN_yScAwysa0i-18" value="GO TO SCHOOL?" style="text;html=1;align=center;verticalAlign=middle;whiteSpace=wrap;rounded=0;fontStyle=1" vertex="1" parent="1">
          <mxGeometry x="370" y="385" width="60" height="30" as="geometry" />
        </mxCell>
        <mxCell id="ELK8MO3kN_yScAwysa0i-21" value="" style="endArrow=classic;html=1;rounded=0;" edge="1" parent="1">
          <mxGeometry width="50" height="50" relative="1" as="geometry">
            <mxPoint x="480" y="400" as="sourcePoint" />
            <mxPoint x="560" y="400" as="targetPoint" />
          </mxGeometry>
        </mxCell>
        <mxCell id="ELK8MO3kN_yScAwysa0i-22" value="&lt;b&gt;NO&lt;/b&gt;" style="text;html=1;align=center;verticalAlign=middle;whiteSpace=wrap;rounded=0;" vertex="1" parent="1">
          <mxGeometry x="490" y="380" width="60" height="30" as="geometry" />
        </mxCell>
        <mxCell id="ELK8MO3kN_yScAwysa0i-23" value="" style="rounded=0;whiteSpace=wrap;html=1;" vertex="1" parent="1">
          <mxGeometry x="560" y="370" width="120" height="60" as="geometry" />
        </mxCell>
        <mxCell id="ELK8MO3kN_yScAwysa0i-24" value="&lt;b&gt;WEEKEND&amp;nbsp;&lt;/b&gt;" style="text;html=1;align=center;verticalAlign=middle;whiteSpace=wrap;rounded=0;" vertex="1" parent="1">
          <mxGeometry x="590" y="385" width="60" height="30" as="geometry" />
        </mxCell>
        <mxCell id="ELK8MO3kN_yScAwysa0i-25" value="" style="endArrow=classic;html=1;rounded=0;" edge="1" parent="1">
          <mxGeometry width="50" height="50" relative="1" as="geometry">
            <mxPoint x="400" y="440" as="sourcePoint" />
            <mxPoint x="400" y="520" as="targetPoint" />
          </mxGeometry>
        </mxCell>
        <mxCell id="ELK8MO3kN_yScAwysa0i-26" value="&lt;b&gt;YES&lt;/b&gt;" style="text;html=1;align=center;verticalAlign=middle;whiteSpace=wrap;rounded=0;rotation=-90;" vertex="1" parent="1">
          <mxGeometry x="364" y="460" width="60" height="30" as="geometry" />
        </mxCell>
        <mxCell id="ELK8MO3kN_yScAwysa0i-27" value="" style="rounded=0;whiteSpace=wrap;html=1;" vertex="1" parent="1">
          <mxGeometry x="340" y="520" width="120" height="60" as="geometry" />
        </mxCell>
        <mxCell id="ELK8MO3kN_yScAwysa0i-28" value="&lt;b&gt;STUDY AND LEARN IN SCHOOL&lt;/b&gt;" style="text;html=1;align=center;verticalAlign=middle;whiteSpace=wrap;rounded=0;" vertex="1" parent="1">
          <mxGeometry x="370" y="535" width="60" height="30" as="geometry" />
        </mxCell>
        <mxCell id="ELK8MO3kN_yScAwysa0i-29" value="" style="endArrow=classic;html=1;rounded=0;" edge="1" parent="1">
          <mxGeometry width="50" height="50" relative="1" as="geometry">
            <mxPoint x="400" y="580" as="sourcePoint" />
            <mxPoint x="400" y="640" as="targetPoint" />
          </mxGeometry>
        </mxCell>
        <mxCell id="ELK8MO3kN_yScAwysa0i-30" value="" style="rhombus;whiteSpace=wrap;html=1;" vertex="1" parent="1">
          <mxGeometry x="320" y="640" width="160" height="80" as="geometry" />
        </mxCell>
        <mxCell id="ELK8MO3kN_yScAwysa0i-31" value="COME BACK HOME?" style="text;html=1;align=center;verticalAlign=middle;whiteSpace=wrap;rounded=0;fontStyle=1" vertex="1" parent="1">
          <mxGeometry x="370" y="665" width="60" height="30" as="geometry" />
        </mxCell>
        <mxCell id="ELK8MO3kN_yScAwysa0i-32" value="" style="endArrow=classic;html=1;rounded=0;" edge="1" parent="1">
          <mxGeometry width="50" height="50" relative="1" as="geometry">
            <mxPoint x="480" y="680" as="sourcePoint" />
            <mxPoint x="560" y="680" as="targetPoint" />
          </mxGeometry>
        </mxCell>
        <mxCell id="ELK8MO3kN_yScAwysa0i-33" value="" style="rounded=0;whiteSpace=wrap;html=1;" vertex="1" parent="1">
          <mxGeometry x="560" y="650" width="120" height="60" as="geometry" />
        </mxCell>
        <mxCell id="ELK8MO3kN_yScAwysa0i-34" value="&lt;b&gt;GOING TO CHURCH&lt;/b&gt;" style="text;html=1;align=center;verticalAlign=middle;whiteSpace=wrap;rounded=0;" vertex="1" parent="1">
          <mxGeometry x="590" y="665" width="60" height="30" as="geometry" />
        </mxCell>
        <mxCell id="ELK8MO3kN_yScAwysa0i-35" value="" style="endArrow=classic;html=1;rounded=0;" edge="1" parent="1">
          <mxGeometry width="50" height="50" relative="1" as="geometry">
            <mxPoint x="400" y="720" as="sourcePoint" />
            <mxPoint x="400" y="800" as="targetPoint" />
          </mxGeometry>
        </mxCell>
        <mxCell id="ELK8MO3kN_yScAwysa0i-36" value="" style="rounded=0;whiteSpace=wrap;html=1;" vertex="1" parent="1">
          <mxGeometry x="340" y="800" width="120" height="60" as="geometry" />
        </mxCell>
        <mxCell id="ELK8MO3kN_yScAwysa0i-37" value="&lt;b&gt;REST AND EAT&lt;/b&gt;" style="text;html=1;align=center;verticalAlign=middle;whiteSpace=wrap;rounded=0;" vertex="1" parent="1">
          <mxGeometry x="370" y="815" width="60" height="30" as="geometry" />
        </mxCell>
        <mxCell id="ELK8MO3kN_yScAwysa0i-38" value="" style="endArrow=classic;html=1;rounded=0;" edge="1" parent="1">
          <mxGeometry width="50" height="50" relative="1" as="geometry">
            <mxPoint x="400" y="860" as="sourcePoint" />
            <mxPoint x="400" y="920" as="targetPoint" />
          </mxGeometry>
        </mxCell>
        <mxCell id="ELK8MO3kN_yScAwysa0i-39" value="" style="rhombus;whiteSpace=wrap;html=1;" vertex="1" parent="1">
          <mxGeometry x="320" y="920" width="160" height="80" as="geometry" />
        </mxCell>
        <mxCell id="ELK8MO3kN_yScAwysa0i-40" value="&lt;b&gt;DO ASSIGNMENTS?&lt;/b&gt;" style="text;html=1;align=center;verticalAlign=middle;whiteSpace=wrap;rounded=0;" vertex="1" parent="1">
          <mxGeometry x="370" y="945" width="60" height="30" as="geometry" />
        </mxCell>
        <mxCell id="ELK8MO3kN_yScAwysa0i-41" value="" style="endArrow=classic;html=1;rounded=0;" edge="1" parent="1" source="ELK8MO3kN_yScAwysa0i-62">
          <mxGeometry width="50" height="50" relative="1" as="geometry">
            <mxPoint x="480" y="960" as="sourcePoint" />
            <mxPoint x="560" y="960" as="targetPoint" />
          </mxGeometry>
        </mxCell>
        <mxCell id="ELK8MO3kN_yScAwysa0i-42" value="" style="rounded=0;whiteSpace=wrap;html=1;" vertex="1" parent="1">
          <mxGeometry x="560" y="930" width="120" height="60" as="geometry" />
        </mxCell>
        <mxCell id="ELK8MO3kN_yScAwysa0i-43" value="&lt;b&gt;NO ASSIGNMENTS GIVEN&lt;/b&gt;" style="text;html=1;align=center;verticalAlign=middle;whiteSpace=wrap;rounded=0;" vertex="1" parent="1">
          <mxGeometry x="590" y="945" width="60" height="30" as="geometry" />
        </mxCell>
        <mxCell id="ELK8MO3kN_yScAwysa0i-44" value="" style="endArrow=classic;html=1;rounded=0;" edge="1" parent="1" source="ELK8MO3kN_yScAwysa0i-67">
          <mxGeometry width="50" height="50" relative="1" as="geometry">
            <mxPoint x="400" y="1000" as="sourcePoint" />
            <mxPoint x="400" y="1060" as="targetPoint" />
          </mxGeometry>
        </mxCell>
        <mxCell id="ELK8MO3kN_yScAwysa0i-46" value="&lt;b&gt;SELF STUDY&lt;/b&gt;" style="text;html=1;align=center;verticalAlign=middle;whiteSpace=wrap;rounded=0;" vertex="1" parent="1">
          <mxGeometry x="370" y="1075" width="60" height="30" as="geometry" />
        </mxCell>
        <mxCell id="ELK8MO3kN_yScAwysa0i-47" value="" style="rhombus;whiteSpace=wrap;html=1;" vertex="1" parent="1">
          <mxGeometry x="320" y="1060" width="160" height="80" as="geometry" />
        </mxCell>
        <mxCell id="ELK8MO3kN_yScAwysa0i-48" value="&lt;b&gt;SELF STUDY&lt;/b&gt;" style="text;html=1;align=center;verticalAlign=middle;whiteSpace=wrap;rounded=0;" vertex="1" parent="1">
          <mxGeometry x="370" y="1085" width="60" height="30" as="geometry" />
        </mxCell>
        <mxCell id="ELK8MO3kN_yScAwysa0i-49" value="" style="endArrow=classic;html=1;rounded=0;" edge="1" parent="1" source="ELK8MO3kN_yScAwysa0i-64">
          <mxGeometry width="50" height="50" relative="1" as="geometry">
            <mxPoint x="480" y="1100" as="sourcePoint" />
            <mxPoint x="560" y="1100" as="targetPoint" />
          </mxGeometry>
        </mxCell>
        <mxCell id="ELK8MO3kN_yScAwysa0i-50" value="" style="rounded=0;whiteSpace=wrap;html=1;" vertex="1" parent="1">
          <mxGeometry x="560" y="1070" width="120" height="60" as="geometry" />
        </mxCell>
        <mxCell id="ELK8MO3kN_yScAwysa0i-51" value="&lt;b&gt;CODING CLASSES&lt;/b&gt;" style="text;html=1;align=center;verticalAlign=middle;whiteSpace=wrap;rounded=0;" vertex="1" parent="1">
          <mxGeometry x="590" y="1085" width="60" height="30" as="geometry" />
        </mxCell>
        <mxCell id="ELK8MO3kN_yScAwysa0i-52" value="" style="endArrow=classic;html=1;rounded=0;" edge="1" parent="1">
          <mxGeometry width="50" height="50" relative="1" as="geometry">
            <mxPoint x="400" y="1140" as="sourcePoint" />
            <mxPoint x="400" y="1200" as="targetPoint" />
          </mxGeometry>
        </mxCell>
        <mxCell id="ELK8MO3kN_yScAwysa0i-53" value="" style="rounded=0;whiteSpace=wrap;html=1;" vertex="1" parent="1">
          <mxGeometry x="340" y="1200" width="120" height="60" as="geometry" />
        </mxCell>
        <mxCell id="ELK8MO3kN_yScAwysa0i-54" value="&lt;b&gt;READ BIBLE&lt;/b&gt;" style="text;html=1;align=center;verticalAlign=middle;whiteSpace=wrap;rounded=0;" vertex="1" parent="1">
          <mxGeometry x="370" y="1215" width="60" height="30" as="geometry" />
        </mxCell>
        <mxCell id="ELK8MO3kN_yScAwysa0i-55" value="" style="endArrow=classic;html=1;rounded=0;" edge="1" parent="1">
          <mxGeometry width="50" height="50" relative="1" as="geometry">
            <mxPoint x="400" y="1260" as="sourcePoint" />
            <mxPoint x="400" y="1321" as="targetPoint" />
          </mxGeometry>
        </mxCell>
        <mxCell id="ELK8MO3kN_yScAwysa0i-56" value="" style="rounded=0;whiteSpace=wrap;html=1;" vertex="1" parent="1">
          <mxGeometry x="340" y="1320" width="120" height="60" as="geometry" />
        </mxCell>
        <mxCell id="ELK8MO3kN_yScAwysa0i-57" value="&lt;b&gt;PRAY&lt;/b&gt;" style="text;html=1;align=center;verticalAlign=middle;whiteSpace=wrap;rounded=0;" vertex="1" parent="1">
          <mxGeometry x="370" y="1335" width="60" height="30" as="geometry" />
        </mxCell>
        <mxCell id="ELK8MO3kN_yScAwysa0i-58" value="" style="endArrow=classic;html=1;rounded=0;" edge="1" parent="1">
          <mxGeometry width="50" height="50" relative="1" as="geometry">
            <mxPoint x="400" y="1380" as="sourcePoint" />
            <mxPoint x="400" y="1440" as="targetPoint" />
          </mxGeometry>
        </mxCell>
        <mxCell id="ELK8MO3kN_yScAwysa0i-59" value="" style="ellipse;whiteSpace=wrap;html=1;" vertex="1" parent="1">
          <mxGeometry x="340" y="1440" width="120" height="80" as="geometry" />
        </mxCell>
        <mxCell id="ELK8MO3kN_yScAwysa0i-60" value="&lt;b&gt;END&lt;/b&gt;" style="text;html=1;align=center;verticalAlign=middle;whiteSpace=wrap;rounded=0;" vertex="1" parent="1">
          <mxGeometry x="370" y="1465" width="60" height="30" as="geometry" />
        </mxCell>
        <mxCell id="ELK8MO3kN_yScAwysa0i-61" value="&lt;b&gt;NO&lt;/b&gt;" style="text;html=1;align=center;verticalAlign=middle;whiteSpace=wrap;rounded=0;" vertex="1" parent="1">
          <mxGeometry x="480" y="660" width="60" height="30" as="geometry" />
        </mxCell>
        <mxCell id="ELK8MO3kN_yScAwysa0i-63" value="" style="endArrow=classic;html=1;rounded=0;" edge="1" parent="1" target="ELK8MO3kN_yScAwysa0i-62">
          <mxGeometry width="50" height="50" relative="1" as="geometry">
            <mxPoint x="480" y="960" as="sourcePoint" />
            <mxPoint x="560" y="960" as="targetPoint" />
          </mxGeometry>
        </mxCell>
        <mxCell id="ELK8MO3kN_yScAwysa0i-62" value="&lt;b&gt;NO&lt;/b&gt;" style="text;html=1;align=center;verticalAlign=middle;whiteSpace=wrap;rounded=0;" vertex="1" parent="1">
          <mxGeometry x="490" y="940" width="60" height="30" as="geometry" />
        </mxCell>
        <mxCell id="ELK8MO3kN_yScAwysa0i-65" value="" style="endArrow=classic;html=1;rounded=0;" edge="1" parent="1" target="ELK8MO3kN_yScAwysa0i-64">
          <mxGeometry width="50" height="50" relative="1" as="geometry">
            <mxPoint x="480" y="1100" as="sourcePoint" />
            <mxPoint x="560" y="1100" as="targetPoint" />
          </mxGeometry>
        </mxCell>
        <mxCell id="ELK8MO3kN_yScAwysa0i-64" value="&lt;b&gt;NO&lt;/b&gt;" style="text;html=1;align=center;verticalAlign=middle;whiteSpace=wrap;rounded=0;" vertex="1" parent="1">
          <mxGeometry x="490" y="1080" width="60" height="30" as="geometry" />
        </mxCell>
        <mxCell id="ELK8MO3kN_yScAwysa0i-66" value="&lt;b&gt;YES&lt;/b&gt;" style="text;html=1;align=center;verticalAlign=middle;whiteSpace=wrap;rounded=0;rotation=-90;" vertex="1" parent="1">
          <mxGeometry x="364" y="730" width="60" height="30" as="geometry" />
        </mxCell>
        <mxCell id="ELK8MO3kN_yScAwysa0i-68" value="&lt;b&gt;YES&lt;/b&gt;" style="text;html=1;align=center;verticalAlign=middle;whiteSpace=wrap;rounded=0;rotation=-90;" vertex="1" parent="1">
          <mxGeometry x="364" y="1150" width="60" height="30" as="geometry" />
        </mxCell>
        <mxCell id="ELK8MO3kN_yScAwysa0i-69" value="" style="endArrow=classic;html=1;rounded=0;" edge="1" parent="1" target="ELK8MO3kN_yScAwysa0i-67">
          <mxGeometry width="50" height="50" relative="1" as="geometry">
            <mxPoint x="400" y="1000" as="sourcePoint" />
            <mxPoint x="400" y="1060" as="targetPoint" />
          </mxGeometry>
        </mxCell>
        <mxCell id="ELK8MO3kN_yScAwysa0i-67" value="&lt;b&gt;YES&lt;/b&gt;" style="text;html=1;align=center;verticalAlign=middle;whiteSpace=wrap;rounded=0;rotation=-90;" vertex="1" parent="1">
          <mxGeometry x="364" y="1010" width="60" height="30" as="geometry" />
        </mxCell>
      </root>
    </mxGraphModel>
  </diagram>
</mxfile>
